<svg xmlns="http://www.w3.org/2000/svg" width="31" height="31" viewBox="0 0 31 31">
  <g id="ic_speaker_on" transform="translate(-0.5 -0.5)">
    <rect id="Rectangle_78" data-name="Rectangle 78" width="30" height="30" transform="translate(1 1)" fill="none" stroke="#706d64" stroke-width="1"/>
    <path id="Path_74" data-name="Path 74" d="M24.5,25V14.778a1,1,0,0,0-1-1H9a1,1,0,0,0-1,1V25" fill="none" stroke="#d0caba" stroke-width="1"/>
    <rect id="Rectangle_79" data-name="Rectangle 79" width="5.873" height="1.623" rx="0.812" transform="translate(13.214 15.593)" fill="#eae0c9"/>
    <path id="Path_75" data-name="Path 75" d="M10.25,19.39h12V25h-12Z" fill="#eae0c9"/>
    <g id="Path_76" data-name="Path 76" fill="#eae0c9">
      <path d="M 17.69127655029297 11.38371467590332 C 17.69126319885254 11.38371467590332 17.69125366210938 11.38371467590332 17.69124031066895 11.38371467590332 C 17.5822811126709 11.38370513916016 17.47565078735352 11.33652496337891 17.39869117736816 11.25426483154297 C 17.05161094665527 10.88323497772217 16.59512138366699 10.67889499664307 16.11330032348633 10.67889499664307 C 15.65367126464844 10.67889499664307 15.20649147033691 10.8783655166626 14.85414123535156 11.24055480957031 C 14.78441143035889 11.32271480560303 14.68456077575684 11.3693151473999 14.57523059844971 11.3693151473999 C 14.46628093719482 11.3693151473999 14.35965061187744 11.32212543487549 14.28269100189209 11.23985481262207 C 14.12357139587402 11.08531475067139 14.12280082702637 10.80894470214844 14.28269100189209 10.63804531097412 C 14.77067089080811 10.1163854598999 15.42559146881104 9.829094886779785 16.12680053710938 9.829094886779785 C 16.84163093566895 9.829094886779785 17.50626182556152 10.12679481506348 17.99828147888184 10.66734504699707 C 18.06759262084961 10.74147605895996 18.12243270874023 10.85807991027832 18.09211730957031 10.95465469360352 C 18.0899543762207 11.06515979766846 18.04601097106934 11.17392730712891 17.97080039978027 11.25427532196045 C 17.90041923522949 11.33711528778076 17.80058097839355 11.38371467590332 17.69127655029297 11.38371467590332 Z M 19.26305198669434 9.720015525817871 C 19.15497016906738 9.720015525817871 19.05070114135742 9.674824714660645 18.97699165344238 9.596025466918945 C 18.21234130859375 8.778655052185059 17.20012092590332 8.32851505279541 16.12680053710938 8.32851505279541 C 15.0667610168457 8.32851505279541 14.06399059295654 8.768525123596191 13.3032112121582 9.5675048828125 C 13.22980117797852 9.645984649658203 13.12553119659424 9.69117546081543 13.01745128631592 9.69117546081543 C 12.9093713760376 9.69117546081543 12.80510139465332 9.645984649658203 12.73139095306396 9.567185401916504 C 12.57878112792969 9.404065132141113 12.57878112792969 9.128464698791504 12.73139095306396 8.96534538269043 C 13.63693141937256 7.997375011444092 14.84754085540771 7.464284896850586 16.14020156860352 7.464284896850586 C 17.43782043457031 7.464284896850586 18.65334129333496 8.007715225219727 19.5628604888916 8.994455337524414 C 19.64310836791992 9.080287933349609 19.6841983795166 9.19387149810791 19.67048454284668 9.291662216186523 C 19.66951370239258 9.403678894042969 19.62540435791016 9.514411926269531 19.54913139343262 9.596005439758301 C 19.47540092468262 9.674824714660645 19.37113189697266 9.720015525817871 19.26305198669434 9.720015525817871 Z" stroke="none"/>
      <path d="M 16.14019966125488 7.514285087585449 C 14.87220001220703 7.514285087585449 13.67169952392578 8.033385276794434 12.76789855957031 8.999505043029785 C 12.63299942016602 9.143694877624512 12.63299942016602 9.388834953308105 12.76789855957031 9.533024787902832 C 12.83535003662109 9.605125427246094 12.92639923095703 9.641175270080566 13.01744842529297 9.641175270080566 C 13.10849952697754 9.641175270080566 13.19954872131348 9.605125427246094 13.26699829101562 9.533024787902832 C 14.03589820861816 8.72552490234375 15.04759979248047 8.278514862060547 16.12679862976074 8.278514862060547 C 17.21939849853516 8.278514862060547 18.24459838867188 8.739954948425293 19.01350021362305 9.561864852905273 C 19.08094787597656 9.633965492248535 19.17199897766113 9.670015335083008 19.2630500793457 9.670015335083008 C 19.35409927368164 9.670015335083008 19.44514846801758 9.633965492248535 19.51259994506836 9.561864852905273 C 19.57999801635742 9.489765167236328 19.62049865722656 9.388834953308105 19.62049865722656 9.287895202636719 C 19.63399887084961 9.201375007629395 19.59349822998047 9.100435256958008 19.52610015869141 9.028345108032227 C 18.62229919433594 8.047804832458496 17.42169952392578 7.514285087585449 16.14019966125488 7.514285087585449 M 16.12679862976074 9.879095077514648 C 15.45229911804199 9.879095077514648 14.80480003356934 10.15309524536133 14.31919860839844 10.67220497131348 C 14.18429946899414 10.8163948059082 14.17079925537109 11.06149482727051 14.31919860839844 11.20569515228271 C 14.38824653625488 11.27950763702393 14.48203468322754 11.31931304931641 14.57522773742676 11.31931304931641 C 14.66410827636719 11.31931304931641 14.7524471282959 11.28311729431152 14.81829833984375 11.20569515228271 C 15.16899871826172 10.84519481658936 15.62759971618652 10.6288948059082 16.1132984161377 10.6288948059082 C 16.61240005493164 10.6288948059082 17.08449935913086 10.84519481658936 17.43519973754883 11.22010517120361 C 17.50424575805664 11.29390716552734 17.59804534912109 11.33371543884277 17.69123840332031 11.33371543884277 C 17.78011703491211 11.33371543884277 17.86844635009766 11.29752731323242 17.93429946899414 11.22010517120361 C 18.00180053710938 11.14799499511719 18.04219818115234 11.04709434509277 18.04219818115234 10.94610500335693 C 18.06919860839844 10.87409496307373 18.0286979675293 10.77309513092041 17.96129989624023 10.70100498199463 C 17.47570037841797 10.16749477386475 16.82819938659668 9.879095077514648 16.12679862976074 9.879095077514648 M 16.14019966125488 7.414284706115723 C 17.45195007324219 7.414284706115723 18.6805305480957 7.963435173034668 19.59962844848633 8.960575103759766 C 19.68882369995117 9.05596923828125 19.73482894897461 9.183633804321289 19.72044372558594 9.295285224914551 C 19.71855926513672 9.418605804443359 19.66967010498047 9.540281295776367 19.58564949035645 9.630154609680176 C 19.50248908996582 9.71904468536377 19.38491821289062 9.770014762878418 19.2630500793457 9.770014762878418 C 19.14117813110352 9.770014762878418 19.02360916137695 9.71904468536377 18.94046783447266 9.630185127258301 C 18.18537902832031 8.82303524017334 17.18613052368164 8.378515243530273 16.12679862976074 8.378515243530273 C 15.08057975769043 8.378515243530273 14.09066963195801 8.813014984130859 13.33941841125488 9.601984977722168 C 13.25688934326172 9.690204620361328 13.13931846618652 9.741174697875977 13.01744842529297 9.741174697875977 C 12.89557838439941 9.741174697875977 12.77800941467285 9.690204620361328 12.69486999511719 9.601345062255859 C 12.52495002746582 9.41971492767334 12.52495002746582 9.112814903259277 12.69487953186035 8.931184768676758 C 13.60995864868164 7.952995300292969 14.83353996276855 7.414284706115723 16.14019966125488 7.414284706115723 Z M 16.12679862976074 9.779094696044922 C 16.85587882995605 9.779094696044922 17.53364944458008 10.082594871521 18.03524780273438 10.63369464874268 C 18.10710906982422 10.71053123474121 18.17616653442383 10.8412618637085 18.14191818237305 10.96264743804932 C 18.13781929016113 11.08294677734375 18.08927154541016 11.20087814331055 18.00730895996094 11.28844451904297 C 17.92884826660156 11.3808650970459 17.81546783447266 11.43371486663818 17.69123840332031 11.43371486663818 C 17.56850814819336 11.43371486663818 17.44857025146484 11.3807544708252 17.36217880249023 11.28842544555664 C 17.024658203125 10.92760467529297 16.58112907409668 10.72889518737793 16.1132984161377 10.72889518737793 C 15.66820526123047 10.72889518737793 15.23460960388184 10.92220497131348 14.89209175109863 11.2732572555542 C 14.81064414978027 11.36747741699219 14.69827079772949 11.41931533813477 14.57522964477539 11.41931533813477 C 14.45249938964844 11.41931533813477 14.33255958557129 11.36635494232178 14.24617004394531 11.27401542663574 C 14.06964874267578 11.10264492034912 14.06811904907227 10.79420471191406 14.24617958068848 10.60388469696045 C 14.74370956420898 10.07201480865479 15.41159820556641 9.779094696044922 16.12679862976074 9.779094696044922 Z" stroke="none" fill="#eae0c9"/>
    </g>
  </g>
</svg>
